# xmcd
#
# Track frame offsets:
#	150
#	28675
#	49607
#
# Disc length: 1043 seconds
#
# Revision: 1
# Processed by: cddbd v1.4PL0 Copyright (c) Steve Scherf et al.
# Submitted via: audiograbber 1.81.01
#
DISCID=1c041103
DTITLE=The Sahotas - Maa Da Pyar
DYEAR=1997
DGENRE=
TTITLE0=Maa Da Pyar
TTITLE1=Be With You
TTITLE2=Maa Da Pyar (remix)
EXTD=Recorded by The Sahotas after their mother passed away in 1997. Excellent 
EXTD=tracks by the brothers.
EXTT0=
EXTT1=
EXTT2=
PLAYORDER=
